<?xml version="1.0" standalone="no"?>
<!DOCTYPE svg PUBLIC "-//W3C//DTD SVG 20010904//EN"
 "http://www.w3.org/TR/2001/REC-SVG-20010904/DTD/svg10.dtd">
<svg version="1.0" xmlns="http://www.w3.org/2000/svg"
 width="900.000000pt" height="900.000000pt" viewBox="0 0 900.000000 900.000000"
 preserveAspectRatio="xMidYMid meet">
<metadata>
Created by potrace 1.11, written by Peter Selinger 2001-2013
</metadata>
<g transform="translate(0.000000,900.000000) scale(0.100000,-0.100000)"
fill="#000000" stroke="none">
<path d="M3920 8850 c-363 -26 -778 -113 -1047 -219 -376 -149 -706 -379 -877
-613 -36 -50 -71 -82 -132 -122 -303 -202 -666 -561 -905 -896 -200 -279 -384
-627 -491 -927 -110 -309 -182 -629 -192 -855 -8 -168 18 -376 59 -476 38 -89
63 -330 66 -612 2 -285 27 -474 96 -720 33 -121 37 -128 93 -189 51 -55 59
-70 65 -115 30 -240 130 -673 225 -976 137 -435 337 -966 519 -1375 100 -225
106 -233 236 -304 137 -74 203 -106 209 -100 2 2 -18 94 -45 204 -120 491
-209 904 -215 1000 -3 39 -27 183 -54 320 -76 387 -113 622 -155 995 -43 388
-70 1018 -59 1400 l5 205 -164 -169 c-112 -116 -166 -165 -170 -155 -3 8 -6 4
-6 -11 -1 -14 -10 -31 -22 -39 -20 -12 -27 -8 -95 60 -89 88 -126 162 -132
261 -2 37 1 82 7 100 36 102 22 285 -35 447 -46 132 -58 231 -51 421 6 164 14
205 87 435 193 603 581 1167 1150 1676 166 147 156 142 370 204 107 31 236 67
285 80 50 13 131 35 180 49 238 67 778 209 885 233 87 19 291 49 420 63 134
13 485 14 620 0 292 -29 639 -108 886 -201 173 -65 421 -182 504 -239 31 -21
248 -83 367 -106 51 -9 106 -13 133 -10 38 5 51 2 85 -21 179 -120 543 -471
718 -692 298 -375 510 -775 637 -1199 50 -167 60 -228 60 -375 0 -141 -19
-244 -65 -347 -58 -132 -82 -308 -54 -400 31 -103 28 -202 -7 -291 l-16 -39
-74 69 c-76 72 -129 108 -138 92 -4 -5 -1 -67 5 -138 15 -164 6 -727 -15
-1003 -26 -327 -54 -594 -96 -895 -55 -388 -57 -402 -101 -655 -22 -124 -44
-252 -50 -285 -13 -82 -98 -498 -171 -843 -6 -29 -8 -55 -5 -59 14 -13 352
188 505 301 82 60 83 62 78 96 -3 22 4 68 20 125 241 857 384 1645 401 2210
l6 210 34 49 34 49 -5 261 c-2 144 -10 329 -16 411 -21 254 -1 426 65 583 42
101 57 199 59 382 1 174 -2 196 -69 460 -205 811 -743 1606 -1488 2196 -67 53
-149 125 -182 158 -234 239 -563 454 -915 599 -103 42 -365 128 -475 156 -140
35 -395 80 -545 97 -166 18 -662 27 -840 14z"/>
<path d="M6980 4780 c-178 -31 -338 -290 -480 -775 -67 -229 -153 -699 -185
-1005 -71 -682 -87 -936 -86 -1406 0 -454 21 -705 82 -994 41 -190 124 -355
208 -415 39 -28 50 -30 124 -30 71 1 89 5 137 30 30 17 80 55 111 85 94 92
138 204 208 530 71 334 92 437 97 470 2 19 20 116 39 215 110 578 189 1187
231 1790 18 256 15 873 -5 1020 -6 44 -16 118 -22 165 l-12 84 -78 77 c-118
117 -259 178 -369 159z"/>
<path d="M1790 4743 c-69 -24 -143 -77 -219 -159 -78 -84 -76 -76 -91 -284
-29 -393 2 -928 91 -1565 20 -144 134 -813 145 -846 2 -9 29 -138 59 -285 30
-148 79 -379 110 -514 31 -135 61 -269 68 -297 6 -29 14 -48 17 -43 3 5 20
-48 38 -118 60 -232 153 -377 287 -443 125 -61 238 -49 313 36 82 94 132 235
167 473 51 347 55 718 14 1267 -31 421 -47 558 -115 1015 -100 670 -267 1249
-440 1527 -60 96 -163 206 -218 232 -52 26 -159 28 -226 4z"/>
<path d="M8372 3393 c-16 -3 -22 -9 -18 -20 7 -17 -19 -475 -35 -623 -21 -201
-51 -430 -70 -540 -42 -244 -77 -403 -175 -795 -8 -33 -41 -152 -73 -265 -58
-199 -68 -259 -45 -267 25 -8 334 335 334 372 0 6 6 25 14 41 181 373 238 666
232 1195 -2 124 -6 230 -9 236 -4 6 -9 30 -12 54 -5 40 -38 258 -66 434 -14
87 -40 185 -48 184 -3 -1 -16 -4 -29 -6z"/>
<path d="M505 3086 c-9 -25 -22 -484 -19 -676 0 -74 6 -160 13 -190 6 -30 14
-91 17 -135 20 -265 145 -670 273 -885 22 -36 62 -104 90 -151 34 -58 76 -110
129 -161 99 -94 268 -222 282 -213 17 10 6 65 -29 139 -18 39 -62 140 -98 225
-36 86 -74 174 -84 197 -61 136 -203 535 -273 769 -83 275 -201 785 -231 995
-13 91 -15 98 -40 102 -17 4 -25 -1 -30 -16z"/>
<path d="M7870 890 c-9 -6 -10 -10 -3 -10 6 0 15 5 18 10 8 12 4 12 -15 0z"/>
</g>
</svg>
